<svg width="641" height="140" viewBox="0 0 641 140" fill="none" xmlns="http://www.w3.org/2000/svg">
<path d="M34.1839 5.24391C47.0367 5.2902 58.9671 8.82676 71.2629 9.71739C80.7631 10.4056 90.2176 10.0663 99.6894 10.2161C104.072 10.2855 108.294 10.8417 112.43 12.2706C119.648 14.7643 123.814 21.8157 122.312 29.1055C121.068 35.1453 113.394 40.4073 106.634 39.8224C103.295 39.5335 101.435 37.2146 99.6155 34.743C97.2065 31.4708 95.2022 26.4806 90.3196 27.807C85.1624 29.2079 86.8075 34.6258 86.4163 38.5615C84.5323 57.5144 85.9363 76.4678 86.6454 95.4112C86.8936 102.041 87.8501 108.644 88.4696 115.26C88.8119 118.915 90.4958 121.445 94.1152 122.689C97.619 123.893 100.612 125.785 99.8611 130.207C99.083 134.787 95.56 135.781 91.6447 135.82C73.5012 136 55.3545 135.836 37.2184 136.679C33.2878 136.861 29.2621 136.213 28.2747 131.351C27.3028 126.566 30.0298 123.569 34.1531 122.201C40.0317 120.25 41.7247 116.139 42.1635 110.434C44.1138 85.0815 46.4554 59.7596 46.9579 34.3141C47.0591 29.1905 45.8777 24.9725 40.6266 23.1199C35.4794 21.3039 30.1501 23.3755 26.8338 28.5117C24.3108 32.4194 22.3432 36.6952 19.7154 40.5236C15.9514 46.0071 11.9858 47.24 6.39492 45.2836C1.36953 43.525 -0.553386 40.5635 0.134999 33.7284C1.8902 16.3009 9.24346 3.78499 34.1839 5.24391Z" fill="black"/>
<path d="M113.386 50.9203C127.616 36.3094 155.448 30.5431 174.005 38.1882C187.359 43.6896 192.294 54.5992 193.578 68.1526C194.87 81.7885 194.643 95.4339 194.468 109.076C194.39 115.167 195.828 120.471 199.151 125.541C203.221 131.75 202.216 134.158 195.284 136.517C182.503 140.866 171.465 137.863 161.47 128.306C154.45 134.05 146.072 136.961 137.127 138.501C122.671 140.989 112.229 136.494 107.142 125.503C102.392 115.239 104.303 105.648 112.389 97.7066C123.019 87.2655 136.697 82.8882 150.313 78.4148C157.875 75.9304 157.952 76.1018 157.842 67.9887C157.784 63.6395 157.017 59.3693 155.834 55.2112C154.952 52.1097 152.895 49.778 149.427 49.9037C146.007 50.0276 144.765 52.682 144.168 55.6527C143.217 60.3817 142.417 65.1449 140.23 69.5294C136.894 76.2176 131.115 79.0528 124.045 79.4713C118.122 79.8219 113.724 76.7117 110.942 71.815C106.83 64.5781 108.836 57.694 113.386 50.9203ZM140.169 101.232C138.067 106.204 137.897 111.21 139.848 116.276C141.134 119.617 143.648 120.94 146.978 120.157C151.214 119.161 155.255 116.878 156.207 112.604C157.89 105.047 157.375 97.2716 156.696 88.8232C149.654 91.4339 143.825 94.2096 140.169 101.232Z" fill="black"/>
<path d="M516.343 138.118C498.221 142.104 481.773 139.924 467.829 127.41C458.476 119.016 454.16 107.823 452.261 95.7521C449.799 80.1044 452.56 65.8838 463.428 53.3869C476.891 37.9059 493.791 33.8596 512.999 37.0133C534.129 40.4823 542.424 56.0257 544.618 73.6164C544.947 76.2526 545.439 78.8877 545.511 81.5326C545.662 87.1137 544.129 88.713 538.511 88.7435C524.353 88.8202 510.194 88.7701 496.036 88.7911C489.103 88.8013 488.794 89.2003 490.273 95.8515C494.552 115.091 513.466 122.836 530.147 112.157C532.389 110.721 534.458 109.006 536.739 107.641C540.606 105.326 544.123 107.253 544.501 111.726C544.695 114.029 543.816 115.959 542.582 117.786C536.146 127.308 527.848 134.453 516.343 138.118ZM510.801 62.5338C509.946 58.8145 509.076 55.1107 506.888 51.8699C503.544 46.9152 499.15 46.4762 495.614 51.206C491.057 57.2994 488.462 64.1756 488.531 71.9663C488.56 75.2197 489.909 76.411 493.038 76.3033C496.847 76.1724 500.667 76.38 504.475 76.2438C509.544 76.0625 512.314 72.7459 511.718 67.7321C511.543 66.2589 511.167 64.8095 510.801 62.5338Z" fill="black"/>
<path d="M637.163 60.0064C639.421 67.242 640.837 74.1682 640.66 81.4523C640.544 86.1854 638.642 88.0129 634.031 87.981C619.38 87.8797 604.727 87.9358 590.074 87.9628C584.48 87.9731 583.656 89.0314 584.802 94.4768C589.258 115.644 610.834 123.354 628.234 109.975C631.254 107.653 634.103 104.391 638.272 107.509C641.331 109.796 640.758 113.505 637.354 118.673C617.966 148.117 573.491 144.086 557.828 121.126C549.844 109.422 546.876 96.4252 547.43 82.3662C547.862 71.4208 552.026 62.2956 558.608 53.6469C571.639 36.5243 598.239 31.059 617.502 38.8315C627.213 42.75 633.535 49.8665 637.163 60.0064ZM586.825 57.8368C586.285 59.5694 585.564 61.2683 585.236 63.04C582.864 75.8319 583.317 76.3563 596.115 76.2641C597.113 76.2569 598.115 76.2935 599.108 76.2144C605.916 75.6717 607.245 74.3163 606.965 67.5788C606.835 64.4431 606.593 61.2224 605.744 58.2268C604.436 53.6125 603.085 47.9851 597.607 47.2944C591.921 46.5774 589.791 51.9252 587.597 56.2484C587.447 56.5447 587.324 56.8552 586.825 57.8368Z" fill="black"/>
<path d="M438.165 88.757C424.678 88.7662 411.678 88.8837 398.682 88.7233C394.332 88.6697 393.341 89.9508 394.207 94.3355C398.528 116.224 419.796 124.249 437.715 110.604C440.627 108.386 443.698 104.575 447.637 108.387C451.543 112.167 449.028 116.114 446.61 119.615C434.558 137.06 415.612 143.391 392.177 137.886C375.064 133.865 361.174 117.531 357.888 98.7242C354.509 79.3801 358.984 62.8366 373.191 49.016C386.796 35.7809 414.085 32.0647 430.643 41.3686C442.504 48.0334 446.98 59.2586 449.356 71.7393C449.914 74.6694 450.35 77.6675 450.396 80.6412C450.5 87.3654 448.978 88.7477 442.154 88.7637C440.988 88.7665 439.821 88.7593 438.165 88.757ZM416.024 71.4939C416.646 64.4891 415.317 57.8837 411.542 51.9358C408.489 47.1269 404.617 46.5882 400.943 50.7243C395.32 57.0555 392.481 64.5125 393.311 73.1598C393.53 75.4418 394.683 76.4373 396.839 76.4365C401.491 76.4349 406.147 76.4796 410.795 76.3325C413.348 76.2517 415.171 74.911 416.024 71.4939Z" fill="black"/>
<path d="M277.538 48.4142C275.999 41.72 277.079 39.7377 283.205 38.4891C289.15 37.2773 294.069 34.4817 298.168 30.079C305.433 22.2737 312.584 14.3698 318.933 5.78526C320.44 3.748 321.973 1.84339 324.448 0.904765C330.976 -1.57119 334.339 1.11311 333.968 7.99427C333.52 16.3032 333.594 24.6394 333.381 32.9623C333.299 36.1879 334.833 37.4487 337.956 37.3506C341.785 37.2304 345.622 37.1854 349.45 37.2918C354.948 37.4445 357.089 41.1638 354.669 46.1212C352.559 50.4416 348.746 51.6069 344.35 51.8459C332.589 52.4854 332.897 52.5237 332.229 64.419C331.555 76.4089 331.569 88.3898 331.537 100.38C331.534 101.38 331.514 102.381 331.555 103.379C332.009 114.45 338.925 120.12 349.635 118.006C352.722 117.396 355.749 116.635 357.597 119.945C359.624 123.577 357.041 126.074 354.646 128.068C342.359 138.302 328.34 142.053 312.719 138.084C303.279 135.686 298.737 128.296 296.275 119.58C292.234 105.271 292.381 90.5998 293.514 75.9596C294.054 68.9869 293.379 61.9617 294.681 55.0313C295.113 52.7305 293.515 51.6144 291.502 51.3883C289.03 51.1108 286.524 51.085 284.031 51.0522C281.647 51.0207 279.331 50.9273 277.538 48.4142Z" fill="black"/>
<path d="M211.209 91.6721C197.492 81.002 199.219 56.7544 213.843 45.4056C224.096 37.4481 235.793 35.2398 248.244 36.6165C254.846 37.3464 261.189 39.6533 267.346 42.2587C268.898 42.9153 270.803 43.5492 271.194 45.2031C272.752 51.8004 274.892 58.4542 272.472 65.2717C270.737 70.1604 267.525 71.1753 263.066 68.563C260.992 67.3485 259.504 65.612 258.353 63.5177C256.83 60.7455 255.383 57.9109 253.615 55.2977C250.217 50.2738 245.364 48.0691 239.365 49.1218C232.554 50.317 229.955 56.5215 233.727 62.3459C236.04 65.9172 239.23 68.6106 243.071 70.4147C247.59 72.5377 252.151 74.5849 256.77 76.4811C264.989 79.8558 272.312 84.567 276.639 92.4499C282.766 103.613 280.629 121.612 266.657 131.561C261.087 135.527 254.821 138.044 248.189 138.654C235.686 139.805 223.254 139.405 211.433 134.061C207 132.057 204.042 129.35 202.945 124.461C201.606 118.495 201.097 112.587 203.186 106.761C204.199 103.936 205.673 100.887 209.265 100.962C213.092 101.042 215.326 103.712 216.061 107.244C217.041 111.959 219.535 115.875 222.055 119.778C227.359 127.993 237.942 129.463 245.548 123.165C250.817 118.801 250.477 111.386 244.501 108.132C240.138 105.756 235.381 104.093 230.762 102.202C223.98 99.4253 217.07 96.9055 211.209 91.6721Z" fill="black"/>
</svg>
